<?xml version="1.0" encoding="UTF-8"?>
<svg id="Layer_2" data-name="Layer 2" xmlns="http://www.w3.org/2000/svg" viewBox="0 0 75.71 93.52">
  <defs>
    <style>
      .cls-1 {
        fill: #fdbd40;
      }
    </style>
  </defs>
  <g id="Layer_1-2" data-name="Layer 1">
    <g>
      <g id="g330">
        <path id="path332" class="cls-1" d="m56.3,0l-18.44,9.26L19.42,0l18.44,35.06L56.3,0Z"/>
      </g>
      <g id="g334">
        <path id="path336" class="cls-1" d="m62.75,27.1l-.29-.24,13.15-5.54V2.82l-22.86,9.75s-12.37,23.45-12.66,23.99c9.69,1.16,16.97,9.29,16.97,19.09,0,10.61-8.61,19.25-19.21,19.25s-19.24-8.64-19.24-19.25c0-9.8,7.28-17.93,16.98-19.09-.29-.54-12.65-23.99-12.65-23.99L.11,2.82v18.5l13.15,5.54-.29.24C4.73,34.31,0,44.71,0,55.65c0,20.88,16.97,37.87,37.86,37.87s37.86-16.99,37.86-37.87c0-10.93-4.73-21.34-12.96-28.55"/>
      </g>
    </g>
  </g>
</svg>