<?xml version="1.0" encoding="UTF-8" standalone="no"?>
<!-- Created with Inkscape (http://www.inkscape.org/) -->

<svg
   version="1.1"
   id="svg2"
   width="793.70667"
   height="1122.52"
   viewBox="0 0 793.70667 1122.52"
   sodipodi:docname="logo-NHSV - new.ai"
   xmlns:inkscape="http://www.inkscape.org/namespaces/inkscape"
   xmlns:sodipodi="http://sodipodi.sourceforge.net/DTD/sodipodi-0.dtd"
   xmlns="http://www.w3.org/2000/svg"
   xmlns:svg="http://www.w3.org/2000/svg">
  <defs
     id="defs6">
    <clipPath
       clipPathUnits="userSpaceOnUse"
       id="clipPath20">
      <path
         d="M 0,841.89 H 595.28 V 0 H 0 Z"
         id="path18" />
    </clipPath>
  </defs>
  <sodipodi:namedview
     id="namedview4"
     pagecolor="#ffffff"
     bordercolor="#000000"
     borderopacity="0.25"
     inkscape:showpageshadow="2"
     inkscape:pageopacity="0.0"
     inkscape:pagecheckerboard="0"
     inkscape:deskcolor="#d1d1d1" />
  <g
     id="g8"
     inkscape:groupmode="layer"
     inkscape:label="logo-NHSV - new"
     transform="matrix(1.3333333,0,0,-1.3333333,0,1122.52)">
    <g
       id="g10"
       transform="translate(105.3871,568.1511)">
      <path
         d="M 0,0 -18.444,-9.263 -36.883,0 -18.444,-35.064 Z"
         style="fill:#fdbd40;fill-opacity:1;fill-rule:nonzero;stroke:none"
         id="path12" />
    </g>
    <g
       id="g14">
      <g
         id="g16"
         clip-path="url(#clipPath20)">
        <g
           id="g22"
           transform="translate(111.8399,541.0508)">
          <path
             d="M 0,0 -0.285,0.242 12.867,5.78 v 18.497 l -22.86,-9.751 c 0,0 -12.374,-23.446 -12.659,-23.987 9.693,-1.161 16.973,-9.292 16.973,-19.092 0,-10.608 -8.615,-19.247 -19.213,-19.247 -10.607,0 -19.242,8.639 -19.242,19.247 0,9.8 7.285,17.931 16.983,19.092 -0.285,0.541 -12.653,23.987 -12.653,23.987 L -62.64,24.277 V 5.78 L -49.488,0.242 -49.774,0 c -8.247,-7.207 -12.978,-17.612 -12.978,-28.553 0,-20.877 16.974,-37.87 37.86,-37.87 20.868,0 37.855,16.993 37.855,37.87 C 12.963,-17.626 8.238,-7.217 0,0"
             style="fill:#fdbd40;fill-opacity:1;fill-rule:nonzero;stroke:none"
             id="path24" />
        </g>
        <g
           id="g26"
           transform="translate(318.1437,555.444)">
          <path
             d="M 0,0 H -11.053 V -28.529 H -56.231 V 0 h -11.048 c -2.607,0 -4.755,-2.51 -4.755,-5.626 v -60.308 c 0,-3.096 2.128,-5.631 4.755,-5.631 h 11.048 v 30.643 h 45.178 V -71.565 H 0 c 2.622,0 4.745,2.535 4.745,5.631 V -5.626 C 4.745,-2.51 2.651,0 0,0"
             style="fill:#007ec3;fill-opacity:1;fill-rule:nonzero;stroke:none"
             id="path28" />
        </g>
        <g
           id="g30"
           transform="translate(227.694,555.444)">
          <path
             d="m 0,0 h -11.062 v -54.804 l -33.217,43.78 C -49.803,-4.634 -53.605,0 -62.432,0 h -11.256 v -65.934 c 0,-3.096 2.114,-5.631 4.769,-5.631 h 11.038 v 55.051 l 33.434,-43.476 c 5.645,-6.539 10.671,-11.575 18.865,-11.575 H 4.74 V -5.626 C 4.74,-2.51 2.612,0 0,0"
             style="fill:#007ec3;fill-opacity:1;fill-rule:nonzero;stroke:none"
             id="path32" />
        </g>
        <g
           id="g34"
           transform="translate(391.2542,483.8792)">
          <path
             d="m 0,0 c -1.117,0 -2.08,0.958 -2.08,2.08 v 24.476 c 0,1.126 0.963,2.075 2.08,2.075 H 3.572 V 0 Z"
             style="fill:#007ec3;fill-opacity:1;fill-rule:nonzero;stroke:none"
             id="path36" />
        </g>
        <g
           id="g38"
           transform="translate(371.5918,483.8792)">
          <path
             d="m 0,0 h -4.19 c -1.656,0 -2.694,0.958 -3.277,2.495 l -10.081,26.136 h 3.78 c 1.656,0 2.733,-0.914 3.276,-2.49 l 7.26,-20.666 7.263,20.666 c 0.535,1.576 1.617,2.49 3.277,2.49 h 3.771 z"
             style="fill:#007ec3;fill-opacity:1;fill-rule:nonzero;stroke:none"
             id="path40" />
        </g>
        <g
           id="g42"
           transform="translate(407.2604,483.8792)">
          <path
             d="m 0,0 c -1.117,0 -2.071,0.958 -2.071,2.08 v 24.476 c 0,1.126 0.954,2.075 2.071,2.075 h 16.722 v -2.075 c 0,-1.122 -0.954,-2.076 -2.071,-2.076 H 3.528 v -7.881 h 12.28 v -2.076 c 0,-1.121 -0.954,-2.075 -2.071,-2.075 H 3.528 V 4.151 h 11.207 c 1.117,0 2.071,-0.954 2.071,-2.071 l 0,-2.08 z"
             style="fill:#007ec3;fill-opacity:1;fill-rule:nonzero;stroke:none"
             id="path44" />
        </g>
        <g
           id="g46"
           transform="translate(441.9427,483.8792)">
          <path
             d="m 0,0 c -1.117,0 -2.075,0.958 -2.075,2.08 v 22.4 h -6.35 c -1.113,0 -2.071,0.954 -2.071,2.076 v 2.075 h 22.445 v -2.075 c 0,-1.122 -0.954,-2.076 -2.071,-2.076 H 3.528 L 3.528,0 Z"
             style="fill:#007ec3;fill-opacity:1;fill-rule:nonzero;stroke:none"
             id="path48" />
        </g>
        <g
           id="g50"
           transform="translate(561.3796,483.8792)">
          <path
             d="M 0,0 H -3.4 V 22.365 L -10.121,2.822 c -0.494,-1.453 -1.576,-2.407 -3.236,-2.407 h -2.826 l -7.547,21.95 V 0 h -3.4 c -1.121,0 -2.075,0.958 -2.075,2.08 v 26.551 h 4.981 c 1.779,0 3.395,-0.746 3.938,-2.287 l 6.725,-19.451 6.717,19.451 c 0.538,1.541 2.159,2.287 3.938,2.287 H 2.08 V 2.08 C 2.08,0.958 1.126,0 0,0"
             style="fill:#007ec3;fill-opacity:1;fill-rule:nonzero;stroke:none"
             id="path52" />
        </g>
        <g
           id="g54"
           transform="translate(482.3844,483.8792)">
          <path
             d="M 0,0 C -1.7,0 -3.064,0.627 -3.85,2.12 L -14.523,21.99 V 0 h -3.519 c -1.126,0 -2.085,0.958 -2.085,2.08 v 26.551 h 4.571 c 1.704,0 3.073,-0.622 3.859,-2.119 L -1.033,6.641 v 21.99 H 2.49 c 1.118,0 2.071,-0.949 2.071,-2.075 L 4.561,0 Z"
             style="fill:#007ec3;fill-opacity:1;fill-rule:nonzero;stroke:none"
             id="path56" />
        </g>
        <g
           id="g58"
           transform="translate(361.9348,526.8123)">
          <path
             d="m 0,0 c -3.777,0 -6.943,0.845 -8.826,1.882 l 0.641,1.886 c 0.32,0.922 1.288,1.609 2.483,1.123 1.247,-0.478 3.052,-0.884 5.053,-0.884 2.655,0 5.937,0.803 5.937,3.892 0,3.974 -4.452,4.05 -9.261,6.696 -6.372,3.487 -4.255,14.037 5.731,14.037 3.692,0 6.18,-0.722 8.066,-1.686 L 9.18,25.06 C 8.86,24.142 8.015,23.417 6.773,23.856 5.727,24.219 4.169,24.62 2.838,24.62 c -2.283,0 -4.882,-0.841 -4.882,-3.73 0,-3.085 3.969,-3.845 7.255,-5.33 C 9.146,13.755 11.028,11.83 11.028,8.1 11.028,2.326 5.168,0 0,0"
             style="fill:#007ec3;fill-opacity:1;fill-rule:nonzero;stroke:none"
             id="path60" />
        </g>
        <g
           id="g62"
           transform="translate(378.9763,527.7725)">
          <path
             d="m 0,0 c -1.088,0 -2.014,0.926 -2.014,2.01 v 23.656 c 0,1.084 0.926,2.005 2.014,2.005 h 16.153 v -2.005 c 0,-1.084 -0.922,-2.006 -2.002,-2.006 H 3.401 V 16.038 H 15.27 v -2.002 c 0,-1.084 -0.914,-2.005 -2.002,-2.005 H 3.401 V 4.012 h 10.832 c 1.075,0 2.001,-0.922 2.001,-2.002 V 0 Z"
             style="fill:#007ec3;fill-opacity:1;fill-rule:nonzero;stroke:none"
             id="path64" />
        </g>
        <g
           id="g66"
           transform="translate(412.8883,526.8123)">
          <path
             d="m 0,0 c -8.296,0 -14.672,5.335 -14.672,14.314 0,8.983 6.376,14.318 14.672,14.318 3.051,0 6.103,-0.845 8.19,-2.245 L 7.379,24.582 C 6.943,23.617 6.06,23.096 4.771,23.617 3.534,24.142 1.728,24.62 0,24.62 c -5.087,0 -8.979,-3.892 -8.979,-10.306 0,-6.415 3.892,-10.307 8.979,-10.307 1.933,0 3.854,0.602 4.857,1.084 1.28,0.602 2.283,-0.038 2.718,-0.96 L 8.386,2.407 C 6.576,1.084 3.329,0 0,0"
             style="fill:#007ec3;fill-opacity:1;fill-rule:nonzero;stroke:none"
             id="path68" />
        </g>
        <g
           id="g70"
           transform="translate(436.3893,527.2903)">
          <path
             d="m 0,0 c -7.383,0 -11.706,3.448 -11.706,10.708 v 15.436 c 0,1.084 0.913,2.01 2.001,2.01 h 3.406 V 11.185 c 0,-4.609 1.848,-7.178 6.299,-7.178 4.447,0 6.295,2.569 6.295,7.178 V 28.154 H 9.7 c 1.08,0 2.002,-0.926 2.002,-2.01 V 10.708 C 11.702,3.448 7.417,0 0,0"
             style="fill:#007ec3;fill-opacity:1;fill-rule:nonzero;stroke:none"
             id="path72" />
        </g>
        <g
           id="g74"
           transform="translate(471.593,527.7725)">
          <path
             d="m 0,0 c -1.165,0 -2.33,0.644 -2.855,1.882 l -3.73,8.826 c -0.798,-0.082 -1.643,-0.12 -2.479,-0.12 h -3.615 V 0 h -3.41 c -1.075,0 -1.997,0.922 -1.997,2.006 v 23.66 c 0,1.084 0.922,2.005 1.997,2.005 h 7.025 c 6.166,0 11.629,-1.929 11.629,-8.543 0,-3.683 -1.733,-5.932 -4.293,-7.174 L 3.76,0 Z m -9.064,23.66 h -3.615 V 14.6 h 3.615 c 3.286,0 6.013,1.084 6.013,4.528 0,3.452 -2.727,4.532 -6.013,4.532"
             style="fill:#007ec3;fill-opacity:1;fill-rule:nonzero;stroke:none"
             id="path76" />
        </g>
        <g
           id="g78"
           transform="translate(480.9661,527.7725)">
          <path
             d="m 0,0 c -1.08,0 -2.01,0.926 -2.01,2.01 v 23.656 c 0,1.084 0.93,2.005 2.01,2.005 H 3.453 V 0 Z"
             style="fill:#007ec3;fill-opacity:1;fill-rule:nonzero;stroke:none"
             id="path80" />
        </g>
        <g
           id="g82"
           transform="translate(498.1698,527.7726)">
          <path
             d="m 0,0 c -1.088,0 -2.01,0.926 -2.01,2.01 v 21.65 h -6.128 c -1.089,0 -2.01,0.922 -2.01,2.006 v 2.005 h 21.701 v -2.005 c 0,-1.084 -0.927,-2.006 -2.015,-2.006 l -6.128,0 V 0 Z"
             style="fill:#007ec3;fill-opacity:1;fill-rule:nonzero;stroke:none"
             id="path84" />
        </g>
        <g
           id="g86"
           transform="translate(515.3283,527.7725)">
          <path
             d="m 0,0 c -1.088,0 -2.01,0.926 -2.01,2.01 v 23.656 c 0,1.084 0.922,2.005 2.01,2.005 H 3.448 V 0 Z"
             style="fill:#007ec3;fill-opacity:1;fill-rule:nonzero;stroke:none"
             id="path88" />
        </g>
        <g
           id="g90"
           transform="translate(526.3931,527.7725)">
          <path
             d="m 0,0 c -1.088,0 -2.002,0.926 -2.002,2.01 v 23.656 c 0,1.084 0.914,2.005 2.002,2.005 h 16.153 v -2.005 c 0,-1.084 -0.922,-2.006 -2.002,-2.006 H 3.41 v -7.622 h 11.868 v -2.002 c 0,-1.084 -0.922,-2.005 -2.01,-2.005 H 3.41 V 4.012 h 10.823 c 1.088,0 2.01,-0.922 2.01,-2.002 l 0,-2.01 z"
             style="fill:#007ec3;fill-opacity:1;fill-rule:nonzero;stroke:none"
             id="path92" />
        </g>
        <g
           id="g94"
           transform="translate(553.4576,526.8123)">
          <path
             d="m 0,0 c -3.773,0 -6.939,0.845 -8.821,1.882 l 0.64,1.886 c 0.32,0.922 1.285,1.609 2.488,1.123 1.242,-0.478 3.043,-0.884 5.044,-0.884 2.651,0 5.941,0.803 5.941,3.892 0,3.974 -4.451,4.05 -9.265,6.696 -6.376,3.487 -4.246,14.037 5.731,14.037 3.692,0 6.176,-0.722 8.062,-1.686 L 9.18,25.06 C 8.86,24.142 8.023,23.417 6.781,23.856 5.731,24.219 4.169,24.62 2.846,24.62 c -2.283,0 -4.894,-0.841 -4.894,-3.73 0,-3.085 3.968,-3.845 7.263,-5.33 C 9.141,13.755 11.023,11.83 11.023,8.1 11.023,2.326 5.168,0 0,0"
             style="fill:#007ec3;fill-opacity:1;fill-rule:nonzero;stroke:none"
             id="path96" />
        </g>
        <g
           id="g98"
           transform="translate(504.6449,493.6417)">
          <path
             d="M 0,0 4.84,14.357 10.583,0 Z m 8.662,16.529 c -0.627,1.422 -2.036,2.34 -3.59,2.34 H 1.641 L -9.845,-9.762 h 3.332 c 1.605,0 3.048,0.977 3.644,2.466 l 1.638,4.097 h 12.798 l 2.053,-4.323 c 0.651,-1.368 2.03,-2.24 3.545,-2.24 h 3.098 z"
             style="fill:#007ec3;fill-opacity:1;fill-rule:nonzero;stroke:none"
             id="path100" />
        </g>
        <g
           id="g102"
           transform="translate(330.9221,442.0214)">
          <path
             d="M 0,0 -33.388,-16.768 -66.767,0 -33.388,-63.475 Z"
             style="fill:#fdbd40;fill-opacity:1;fill-rule:nonzero;stroke:none"
             id="path104" />
        </g>
        <g
           id="g106"
           transform="translate(342.6032,392.963)">
          <path
             d="M 0,0 -0.517,0.438 23.292,10.464 V 43.948 L -18.091,26.295 c 0,0 -22.398,-42.442 -22.915,-43.422 17.548,-2.102 30.726,-16.821 30.726,-34.562 0,-19.203 -15.595,-34.841 -34.78,-34.841 -19.203,0 -34.833,15.638 -34.833,34.841 0,17.741 13.187,32.46 30.744,34.562 -0.517,0.98 -22.907,43.422 -22.907,43.422 l -41.339,17.653 V 10.464 L -89.586,0.438 -90.103,0 c -14.93,-13.047 -23.493,-31.882 -23.493,-51.689 0,-37.792 30.726,-68.553 68.536,-68.553 37.775,0 68.527,30.761 68.527,68.553 C 23.467,-31.908 14.912,-13.065 0,0"
             style="fill:#fdbd40;fill-opacity:1;fill-rule:nonzero;stroke:none"
             id="path108" />
        </g>
        <g
           id="g110"
           transform="translate(264.3593,250.9587)">
          <path
             d="M 0,0 H -8.923 V -23.031 H -45.395 V 0 h -8.919 c -2.105,0 -3.838,-2.027 -3.838,-4.541 v -48.687 c 0,-2.499 1.718,-4.546 3.838,-4.546 h 8.919 v 24.738 H -8.923 V -57.774 H 0 c 2.116,0 3.831,2.047 3.831,4.546 V -4.541 C 3.831,-2.027 2.14,0 0,0"
             style="fill:#0076cf;fill-opacity:1;fill-rule:nonzero;stroke:none"
             id="path112" />
        </g>
        <g
           id="g114"
           transform="translate(191.3401,250.9587)">
          <path
             d="M 0,0 H -8.931 V -44.243 L -35.746,-8.899 C -40.205,-3.741 -43.275,0 -50.401,0 h -9.087 v -53.228 c 0,-2.499 1.707,-4.546 3.85,-4.546 h 8.912 v 44.443 l 26.99,-35.098 c 4.558,-5.279 8.615,-9.345 15.23,-9.345 H 3.827 V -4.541 C 3.827,-2.027 2.109,0 0,0"
             style="fill:#0076cf;fill-opacity:1;fill-rule:nonzero;stroke:none"
             id="path116" />
        </g>
        <g
           id="g118"
           transform="translate(323.3806,193.1852)">
          <path
             d="m 0,0 c -0.902,0 -1.679,0.774 -1.679,1.679 v 19.759 c 0,0.909 0.777,1.676 1.679,1.676 H 2.884 V 0 Z"
             style="fill:#0076cf;fill-opacity:1;fill-rule:nonzero;stroke:none"
             id="path120" />
        </g>
        <g
           id="g122"
           transform="translate(307.5074,193.1852)">
          <path
             d="M 0,0 H -3.383 C -4.72,0 -5.557,0.774 -6.028,2.014 l -8.138,21.1 h 3.051 c 1.337,0 2.207,-0.738 2.645,-2.011 L -2.609,4.42 3.255,21.103 c 0.431,1.273 1.304,2.011 2.645,2.011 h 3.044 z"
             style="fill:#0076cf;fill-opacity:1;fill-rule:nonzero;stroke:none"
             id="path124" />
        </g>
        <g
           id="g126"
           transform="translate(336.3024,193.1852)">
          <path
             d="m 0,0 c -0.902,0 -1.672,0.774 -1.672,1.679 v 19.759 c 0,0.909 0.77,1.676 1.672,1.676 h 13.5 v -1.676 c 0,-0.905 -0.77,-1.675 -1.672,-1.675 H 2.848 V 13.4 h 9.914 v -1.676 c 0,-0.905 -0.77,-1.675 -1.672,-1.675 H 2.848 V 3.351 h 9.047 c 0.902,0 1.672,-0.77 1.672,-1.672 l 0,-1.679 z"
             style="fill:#0076cf;fill-opacity:1;fill-rule:nonzero;stroke:none"
             id="path128" />
        </g>
        <g
           id="g130"
           transform="translate(364.301,193.1852)">
          <path
             d="m 0,0 c -0.902,0 -1.675,0.774 -1.675,1.679 v 18.084 h -5.126 c -0.899,0 -1.672,0.77 -1.672,1.675 v 1.676 H 9.646 v -1.676 c 0,-0.905 -0.77,-1.675 -1.672,-1.675 H 2.848 L 2.848,0 Z"
             style="fill:#0076cf;fill-opacity:1;fill-rule:nonzero;stroke:none"
             id="path132" />
        </g>
        <g
           id="g134"
           transform="translate(460.7213,193.1852)">
          <path
             d="M 0,0 H -2.745 V 18.055 L -8.17,2.278 C -8.57,1.105 -9.443,0.335 -10.783,0.335 h -2.282 l -6.092,17.72 V 0 h -2.745 c -0.905,0 -1.675,0.774 -1.675,1.679 v 21.435 h 4.021 c 1.436,0 2.741,-0.603 3.18,-1.847 l 5.429,-15.702 5.422,15.702 c 0.435,1.244 1.743,1.847 3.179,1.847 H 1.679 V 1.679 C 1.679,0.774 0.909,0 0,0"
             style="fill:#0076cf;fill-opacity:1;fill-rule:nonzero;stroke:none"
             id="path136" />
        </g>
        <g
           id="g138"
           transform="translate(396.9492,193.1852)">
          <path
             d="m 0,0 c -1.372,0 -2.474,0.506 -3.108,1.711 l -8.616,16.041 V 0 h -2.841 c -0.909,0 -1.683,0.774 -1.683,1.679 v 21.435 h 3.689 c 1.376,0 2.482,-0.503 3.116,-1.711 L -0.834,5.361 V 23.114 H 2.01 c 0.902,0 1.672,-0.767 1.672,-1.676 L 3.682,0 Z"
             style="fill:#0076cf;fill-opacity:1;fill-rule:nonzero;stroke:none"
             id="path140" />
        </g>
        <g
           id="g142"
           transform="translate(299.7114,227.8447)">
          <path
             d="m 0,0 c -3.049,0 -5.605,0.682 -7.125,1.519 l 0.517,1.523 c 0.258,0.744 1.041,1.299 2.005,0.906 1.006,-0.386 2.464,-0.713 4.079,-0.713 2.143,0 4.793,0.648 4.793,3.142 0,3.208 -3.594,3.27 -7.476,5.406 -5.144,2.814 -3.435,11.331 4.626,11.331 2.981,0 4.989,-0.582 6.512,-1.361 L 7.411,20.23 C 7.152,19.49 6.47,18.904 5.468,19.259 c -0.844,0.293 -2.102,0.617 -3.177,0.617 -1.843,0 -3.941,-0.679 -3.941,-3.012 0,-2.491 3.204,-3.104 5.857,-4.303 C 7.383,11.104 8.902,9.55 8.902,6.539 8.902,1.878 4.172,0 0,0"
             style="fill:#0076cf;fill-opacity:1;fill-rule:nonzero;stroke:none"
             id="path144" />
        </g>
        <g
           id="g146"
           transform="translate(313.4688,228.6199)">
          <path
             d="M 0,0 C -0.879,0 -1.626,0.748 -1.626,1.623 V 20.72 c 0,0.875 0.747,1.619 1.626,1.619 H 13.04 V 20.72 c 0,-0.875 -0.744,-1.62 -1.616,-1.62 H 2.746 v -6.153 h 9.581 v -1.616 c 0,-0.875 -0.737,-1.619 -1.616,-1.619 H 2.746 V 3.239 h 8.744 c 0.868,0 1.616,-0.745 1.616,-1.616 l 0,-1.623 z"
             style="fill:#0076cf;fill-opacity:1;fill-rule:nonzero;stroke:none"
             id="path148" />
        </g>
        <g
           id="g150"
           transform="translate(340.8457,227.8447)">
          <path
             d="m 0,0 c -6.698,0 -11.845,4.307 -11.845,11.555 0,7.252 5.147,11.559 11.845,11.559 2.463,0 4.927,-0.682 6.611,-1.812 L 5.957,19.845 C 5.605,19.066 4.892,18.646 3.852,19.066 2.853,19.49 1.395,19.876 0,19.876 c -4.107,0 -7.249,-3.143 -7.249,-8.321 0,-5.178 3.142,-8.32 7.249,-8.32 1.561,0 3.111,0.486 3.921,0.875 C 4.954,4.596 5.764,4.079 6.115,3.335 L 6.77,1.943 C 5.309,0.875 2.687,0 0,0"
             style="fill:#0076cf;fill-opacity:1;fill-rule:nonzero;stroke:none"
             id="path152" />
        </g>
        <g
           id="g154"
           transform="translate(359.8178,228.2305)">
          <path
             d="m 0,0 c -5.96,0 -9.45,2.784 -9.45,8.644 v 12.461 c 0,0.876 0.737,1.623 1.616,1.623 h 2.749 V 9.03 c 0,-3.721 1.492,-5.795 5.085,-5.795 3.59,0 5.082,2.074 5.082,5.795 v 13.698 h 2.749 c 0.872,0 1.616,-0.747 1.616,-1.623 V 8.644 C 9.447,2.784 5.988,0 0,0"
             style="fill:#0076cf;fill-opacity:1;fill-rule:nonzero;stroke:none"
             id="path156" />
        </g>
        <g
           id="g158"
           transform="translate(388.2374,228.6199)">
          <path
             d="M 0,0 C -0.941,0 -1.881,0.52 -2.305,1.519 L -5.316,8.644 C -5.96,8.579 -6.642,8.548 -7.318,8.548 h -2.918 V 0 h -2.752 c -0.869,0 -1.613,0.744 -1.613,1.619 V 20.72 c 0,0.875 0.744,1.619 1.613,1.619 h 5.67 c 4.979,0 9.389,-1.557 9.389,-6.897 0,-2.974 -1.399,-4.789 -3.466,-5.792 L 3.035,0 Z m -7.318,19.1 h -2.918 v -7.314 h 2.918 c 2.653,0 4.855,0.875 4.855,3.656 0,2.787 -2.202,3.658 -4.855,3.658"
             style="fill:#0076cf;fill-opacity:1;fill-rule:nonzero;stroke:none"
             id="path160" />
        </g>
        <g
           id="g162"
           transform="translate(395.8042,228.6199)">
          <path
             d="M 0,0 C -0.872,0 -1.623,0.748 -1.623,1.623 V 20.72 c 0,0.875 0.751,1.619 1.623,1.619 H 2.787 V 0 Z"
             style="fill:#0076cf;fill-opacity:1;fill-rule:nonzero;stroke:none"
             id="path164" />
        </g>
        <g
           id="g166"
           transform="translate(409.6926,228.6199)">
          <path
             d="M 0,0 C -0.879,0 -1.623,0.748 -1.623,1.623 V 19.1 H -6.57 c -0.879,0 -1.623,0.745 -1.623,1.62 v 1.619 H 9.326 V 20.72 C 9.326,19.845 8.579,19.1 7.7,19.1 H 2.753 V 0 Z"
             style="fill:#0076cf;fill-opacity:1;fill-rule:nonzero;stroke:none"
             id="path168" />
        </g>
        <g
           id="g170"
           transform="translate(423.5445,228.6199)">
          <path
             d="M 0,0 C -0.879,0 -1.623,0.748 -1.623,1.623 V 20.72 c 0,0.875 0.744,1.619 1.623,1.619 H 2.784 V 0 Z"
             style="fill:#0076cf;fill-opacity:1;fill-rule:nonzero;stroke:none"
             id="path172" />
        </g>
        <g
           id="g174"
           transform="translate(432.4769,228.6199)">
          <path
             d="M 0,0 C -0.879,0 -1.616,0.748 -1.616,1.623 V 20.72 c 0,0.875 0.737,1.619 1.616,1.619 H 13.04 V 20.72 c 0,-0.875 -0.744,-1.62 -1.616,-1.62 H 2.753 v -6.153 h 9.581 v -1.616 c 0,-0.875 -0.744,-1.619 -1.623,-1.619 H 2.753 V 3.239 h 8.737 c 0.878,0 1.623,-0.745 1.623,-1.616 V 0 Z"
             style="fill:#0076cf;fill-opacity:1;fill-rule:nonzero;stroke:none"
             id="path176" />
        </g>
        <g
           id="g178"
           transform="translate(454.3259,227.8447)">
          <path
             d="m 0,0 c -3.046,0 -5.602,0.682 -7.121,1.519 l 0.517,1.523 c 0.258,0.744 1.037,1.299 2.008,0.906 1.003,-0.386 2.457,-0.713 4.072,-0.713 2.14,0 4.796,0.648 4.796,3.142 0,3.208 -3.593,3.27 -7.48,5.406 -5.147,2.814 -3.427,11.331 4.627,11.331 2.981,0 4.986,-0.582 6.508,-1.361 L 7.411,20.23 C 7.152,19.49 6.477,18.904 5.474,19.259 c -0.847,0.293 -2.108,0.617 -3.176,0.617 -1.843,0 -3.952,-0.679 -3.952,-3.012 0,-2.491 3.204,-3.104 5.864,-4.303 C 7.38,11.104 8.899,9.55 8.899,6.539 8.899,1.878 4.172,0 0,0"
             style="fill:#0076cf;fill-opacity:1;fill-rule:nonzero;stroke:none"
             id="path180" />
        </g>
        <g
           id="g182"
           transform="translate(414.9198,201.0663)">
          <path
             d="M 0,0 3.907,11.59 8.543,0 Z m 6.993,13.343 c -0.507,1.149 -1.644,1.89 -2.899,1.89 H 1.325 L -7.947,-7.881 h 2.689 c 1.296,0 2.461,0.789 2.942,1.991 l 1.323,3.307 H 9.338 l 1.658,-3.489 c 0.524,-1.105 1.638,-1.809 2.861,-1.809 h 2.501 z"
             style="fill:#0076cf;fill-opacity:1;fill-rule:nonzero;stroke:none"
             id="path184" />
        </g>
      </g>
    </g>
  </g>
</svg>
