<?xml version="1.0" encoding="UTF-8"?>
<svg id="Layer_2" data-name="Layer 2" xmlns="http://www.w3.org/2000/svg" viewBox="0 0 515.39 93.52">
  <defs>
    <style>
      .cls-1 {
        fill: #007ec3;
      }

      .cls-2 {
        fill: #fdbd40;
      }
    </style>
  </defs>
  <g id="Layer_1-2" data-name="Layer 1">
    <g>
      <g id="g330">
        <path id="path332" class="cls-2" d="m56.3,0l-18.44,9.26L19.42,0l18.44,35.06L56.3,0Z"/>
      </g>
      <g id="g334">
        <path id="path336" class="cls-2" d="m62.75,27.1l-.29-.24,13.15-5.54V2.82l-22.86,9.75s-12.37,23.45-12.66,23.99c9.69,1.16,16.97,9.29,16.97,19.09,0,10.61-8.61,19.25-19.21,19.25s-19.24-8.64-19.24-19.25c0-9.8,7.28-17.93,16.98-19.09-.29-.54-12.65-23.99-12.65-23.99L.11,2.82v18.5l13.15,5.54-.29.24C4.73,34.31,0,44.71,0,55.65c0,20.88,16.97,37.87,37.86,37.87s37.86-16.99,37.86-37.87c0-10.93-4.73-21.34-12.96-28.55"/>
      </g>
      <g id="g338">
        <path id="path340" class="cls-1" d="m269.06,12.71h-11.05v28.53h-45.18V12.71h-11.05c-2.61,0-4.75,2.51-4.75,5.63v60.31c0,3.1,2.13,5.63,4.75,5.63h11.05v-30.64h45.18v30.64h11.05c2.62,0,4.75-2.53,4.75-5.63V18.33c0-3.12-2.09-5.63-4.75-5.63"/>
      </g>
      <g id="g342">
        <path id="path344" class="cls-1" d="m178.61,12.71h-11.06v54.8l-33.22-43.78c-5.52-6.39-9.33-11.02-18.15-11.02h-11.26v65.93c0,3.1,2.11,5.63,4.77,5.63h11.04V29.22l33.43,43.48c5.64,6.54,10.67,11.58,18.86,11.58h10.32V18.33c0-3.12-2.13-5.63-4.74-5.63"/>
      </g>
      <g id="g346">
        <path id="path348" class="cls-1" d="m342.17,84.27c-1.12,0-2.08-.96-2.08-2.08v-24.48c0-1.13.96-2.08,2.08-2.08h3.57v28.63h-3.57Z"/>
      </g>
      <g id="g354">
        <path id="path356" class="cls-1" d="m322.5,84.27h-4.19c-1.66,0-2.69-.96-3.28-2.49l-10.08-26.14h3.78c1.66,0,2.73.91,3.28,2.49l7.26,20.67,7.26-20.67c.53-1.58,1.62-2.49,3.28-2.49h3.77l-11.08,28.63Z"/>
      </g>
      <g id="g358">
        <path id="path360" class="cls-1" d="m358.17,84.27c-1.12,0-2.07-.96-2.07-2.08v-24.48c0-1.13.95-2.08,2.07-2.08h16.72v2.08c0,1.12-.95,2.08-2.07,2.08h-11.12v7.88h12.28v2.08c0,1.12-.95,2.08-2.07,2.08h-10.21v8.3h11.21c1.12,0,2.07.95,2.07,2.07v2.08h-16.81Z"/>
      </g>
      <g id="g366">
        <path id="path368" class="cls-1" d="m392.85,84.27c-1.12,0-2.08-.96-2.08-2.08v-22.4h-6.35c-1.11,0-2.07-.95-2.07-2.08v-2.08h22.44v2.08c0,1.12-.95,2.08-2.07,2.08h-6.35v24.48h-3.53Z"/>
      </g>
      <g id="g370">
        <path id="path372" class="cls-1" d="m512.29,84.27h-3.4v-22.37l-6.72,19.54c-.49,1.45-1.58,2.41-3.24,2.41h-2.83l-7.55-21.95v22.37h-3.4c-1.12,0-2.08-.96-2.08-2.08v-26.55h4.98c1.78,0,3.4.75,3.94,2.29l6.73,19.45,6.72-19.45c.54-1.54,2.16-2.29,3.94-2.29h4.99v26.55c0,1.12-.95,2.08-2.08,2.08"/>
      </g>
      <g id="g378">
        <path id="path380" class="cls-1" d="m433.3,84.27c-1.7,0-3.06-.63-3.85-2.12l-10.67-19.87v21.99h-3.52c-1.13,0-2.08-.96-2.08-2.08v-26.55h4.57c1.7,0,3.07.62,3.86,2.12l10.66,19.87v-21.99h3.52c1.12,0,2.07.95,2.07,2.08v26.56s-4.56,0-4.56,0Z"/>
      </g>
      <g id="g390">
        <path id="path392" class="cls-1" d="m312.85,41.34c-3.78,0-6.94-.84-8.83-1.88l.64-1.89c.32-.92,1.29-1.61,2.48-1.12,1.25.48,3.05.88,5.05.88,2.65,0,5.94-.8,5.94-3.89,0-3.97-4.45-4.05-9.26-6.7-6.37-3.49-4.25-14.04,5.73-14.04,3.69,0,6.18.72,8.07,1.69l-.64,1.89c-.32.92-1.17,1.64-2.41,1.2-1.05-.36-2.6-.76-3.93-.76-2.28,0-4.88.84-4.88,3.73,0,3.09,3.97,3.85,7.25,5.33,3.93,1.81,5.82,3.73,5.82,7.46,0,5.77-5.86,8.1-11.03,8.1"/>
      </g>
      <g id="g394">
        <path id="path396" class="cls-1" d="m329.89,40.38c-1.09,0-2.01-.93-2.01-2.01V14.71c0-1.08.93-2.01,2.01-2.01h16.15v2.01c0,1.08-.92,2.01-2,2.01h-10.75v7.62h11.87v2c0,1.08-.91,2.01-2,2.01h-9.87v8.02h10.83c1.08,0,2,.92,2,2v2.01h-16.23Z"/>
      </g>
      <g id="g398">
        <path id="path400" class="cls-1" d="m363.8,41.34c-8.3,0-14.67-5.33-14.67-14.31s6.38-14.32,14.67-14.32c3.05,0,6.1.84,8.19,2.24l-.81,1.81c-.44.96-1.32,1.49-2.61.96-1.24-.52-3.04-1-4.77-1-5.09,0-8.98,3.89-8.98,10.31s3.89,10.31,8.98,10.31c1.93,0,3.85-.6,4.86-1.08,1.28-.6,2.28.04,2.72.96l.81,1.72c-1.81,1.32-5.06,2.41-8.39,2.41"/>
      </g>
      <g id="g402">
        <path id="path404" class="cls-1" d="m387.3,40.86c-7.38,0-11.71-3.45-11.71-10.71v-15.44c0-1.08.91-2.01,2-2.01h3.41v16.97c0,4.61,1.85,7.18,6.3,7.18s6.29-2.57,6.29-7.18V12.71h3.41c1.08,0,2,.93,2,2.01v15.44c0,7.26-4.28,10.71-11.7,10.71"/>
      </g>
      <g id="g406">
        <path id="path408" class="cls-1" d="m413.44,16.72h-3.61v9.06h3.61c3.29,0,6.01-1.08,6.01-4.53s-2.73-4.53-6.01-4.53m9.06,23.66c-1.17,0-2.33-.64-2.86-1.88l-3.73-8.83c-.8.08-1.64.12-2.48.12h-3.61v10.59h-3.41c-1.08,0-2-.92-2-2.01V14.71c0-1.08.92-2.01,2-2.01h7.02c6.17,0,11.63,1.93,11.63,8.54,0,3.68-1.73,5.93-4.29,7.17l5.49,11.95h-3.76Z"/>
      </g>
      <g id="g410">
        <path id="path412" class="cls-1" d="m431.88,40.38c-1.08,0-2.01-.93-2.01-2.01V14.71c0-1.08.93-2.01,2.01-2.01h3.45v27.67h-3.45Z"/>
      </g>
      <g id="g414">
        <path id="path416" class="cls-1" d="m449.08,40.38c-1.09,0-2.01-.93-2.01-2.01v-21.65h-6.13c-1.09,0-2.01-.92-2.01-2.01v-2.01h21.7v2.01c0,1.08-.93,2.01-2.01,2.01h-6.13v23.66h-3.41Z"/>
      </g>
      <g id="g418">
        <path id="path420" class="cls-1" d="m466.24,40.38c-1.09,0-2.01-.93-2.01-2.01V14.71c0-1.08.92-2.01,2.01-2.01h3.45v27.67h-3.45Z"/>
      </g>
      <g id="g422">
        <path id="path424" class="cls-1" d="m477.3,40.38c-1.09,0-2-.93-2-2.01V14.71c0-1.08.91-2.01,2-2.01h16.15v2.01c0,1.08-.92,2.01-2,2.01h-10.74v7.62h11.87v2c0,1.08-.92,2.01-2.01,2.01h-9.86v8.02h10.82c1.09,0,2.01.92,2.01,2v2.01h-16.24Z"/>
      </g>
      <g id="g426">
        <path id="path428" class="cls-1" d="m504.37,41.34c-3.77,0-6.94-.84-8.82-1.88l.64-1.89c.32-.92,1.28-1.61,2.49-1.12,1.24.48,3.04.88,5.04.88,2.65,0,5.94-.8,5.94-3.89,0-3.97-4.45-4.05-9.27-6.7-6.38-3.49-4.25-14.04,5.73-14.04,3.69,0,6.18.72,8.06,1.69l-.64,1.89c-.32.92-1.16,1.64-2.4,1.2-1.05-.36-2.61-.76-3.93-.76-2.28,0-4.89.84-4.89,3.73,0,3.09,3.97,3.85,7.26,5.33,3.93,1.81,5.81,3.73,5.81,7.46,0,5.77-5.86,8.1-11.02,8.1"/>
      </g>
      <path class="cls-1" d="m464.22,57.98c-.63-1.42-2.04-2.34-3.59-2.34h-3.43l-11.49,28.63h3.33c1.6,0,3.05-.98,3.64-2.47l1.64-4.1h12.8l2.05,4.32c.65,1.37,2.03,2.24,3.54,2.24h3.1l-11.6-26.29Zm-8.66,16.53l4.84-14.36,5.74,14.36h-10.58Z"/>
    </g>
  </g>
</svg>