<?xml version="1.0" encoding="UTF-8"?>
<svg id="Layer_2" data-name="Layer 2" xmlns="http://www.w3.org/2000/svg" viewBox="0 0 331.37 248.84">
  <defs>
    <style>
      .cls-1 {
        fill: #0076cf;
      }

      .cls-2 {
        fill: #fdbd40;
      }
    </style>
  </defs>
  <g id="Layer_1-2" data-name="Layer 1">
    <g>
      <g>
        <g id="g330">
          <path id="path332" class="cls-2" d="m199.07,0l-33.39,16.77L132.3,0l33.38,63.47L199.07,0Z"/>
        </g>
        <g id="g334">
          <path id="path336" class="cls-2" d="m210.75,49.06l-.52-.44,23.81-10.03V5.11l-41.38,17.65s-22.4,42.44-22.92,43.42c17.55,2.1,30.73,16.82,30.73,34.56,0,19.2-15.6,34.84-34.78,34.84s-34.83-15.64-34.83-34.84c0-17.74,13.19-32.46,30.74-34.56-.52-.98-22.91-43.42-22.91-43.42L97.36,5.11v33.48l23.81,10.03-.52.44c-14.93,13.05-23.49,31.88-23.49,51.69,0,37.79,30.73,68.55,68.54,68.55s68.53-30.76,68.53-68.55c0-19.78-8.55-38.62-23.47-51.69"/>
        </g>
      </g>
      <g>
        <g id="g338">
          <path id="path340" class="cls-1" d="m132.51,191.06h-8.92v23.03h-36.47v-23.03h-8.92c-2.1,0-3.84,2.03-3.84,4.54v48.69c0,2.5,1.72,4.55,3.84,4.55h8.92v-24.74h36.47v24.74h8.92c2.12,0,3.83-2.05,3.83-4.55v-48.69c0-2.51-1.69-4.54-3.83-4.54"/>
        </g>
        <g id="g342">
          <path id="path344" class="cls-1" d="m59.49,191.06h-8.93v44.24l-26.82-35.34c-4.46-5.16-7.53-8.9-14.66-8.9H0v53.23c0,2.5,1.71,4.55,3.85,4.55h8.91v-44.44l26.99,35.1c4.56,5.28,8.61,9.34,15.23,9.34h8.33v-53.23c0-2.51-1.72-4.54-3.83-4.54"/>
        </g>
        <g id="g346">
          <path id="path348" class="cls-1" d="m191.53,248.84c-.9,0-1.68-.77-1.68-1.68v-19.76c0-.91.78-1.68,1.68-1.68h2.88v23.11h-2.88Z"/>
        </g>
        <g id="g354">
          <path id="path356" class="cls-1" d="m175.66,248.84h-3.38c-1.34,0-2.17-.77-2.65-2.01l-8.14-21.1h3.05c1.34,0,2.21.74,2.65,2.01l5.86,16.68,5.86-16.68c.43-1.27,1.3-2.01,2.65-2.01h3.04l-8.94,23.11Z"/>
        </g>
        <g id="g358">
          <path id="path360" class="cls-1" d="m204.45,248.84c-.9,0-1.67-.77-1.67-1.68v-19.76c0-.91.77-1.68,1.67-1.68h13.5v1.68c0,.91-.77,1.68-1.67,1.68h-8.98v6.36h9.91v1.68c0,.91-.77,1.68-1.67,1.68h-8.24v6.7h9.05c.9,0,1.67.77,1.67,1.67v1.68h-13.57Z"/>
        </g>
        <g id="g366">
          <path id="path368" class="cls-1" d="m232.45,248.84c-.9,0-1.68-.77-1.68-1.68v-18.08h-5.13c-.9,0-1.67-.77-1.67-1.68v-1.68h18.12v1.68c0,.91-.77,1.68-1.67,1.68h-5.13v19.76h-2.85Z"/>
        </g>
        <g id="g370">
          <path id="path372" class="cls-1" d="m328.87,248.84h-2.74v-18.06l-5.43,15.78c-.4,1.17-1.27,1.94-2.61,1.94h-2.28l-6.09-17.72v18.06h-2.74c-.91,0-1.68-.77-1.68-1.68v-21.43h4.02c1.44,0,2.74.6,3.18,1.85l5.43,15.7,5.42-15.7c.43-1.24,1.74-1.85,3.18-1.85h4.02v21.43c0,.91-.77,1.68-1.68,1.68"/>
        </g>
        <g id="g378">
          <path id="path380" class="cls-1" d="m265.1,248.84c-1.37,0-2.47-.51-3.11-1.71l-8.62-16.04v17.75h-2.84c-.91,0-1.68-.77-1.68-1.68v-21.43h3.69c1.38,0,2.48.5,3.12,1.71l8.61,16.04v-17.75h2.84c.9,0,1.67.77,1.67,1.68v21.44s-3.68,0-3.68,0Z"/>
        </g>
        <g id="g390">
          <path id="path392" class="cls-1" d="m167.86,214.18c-3.05,0-5.61-.68-7.12-1.52l.52-1.52c.26-.74,1.04-1.3,2.01-.91,1.01.39,2.46.71,4.08.71,2.14,0,4.79-.65,4.79-3.14,0-3.21-3.59-3.27-7.48-5.41-5.14-2.81-3.43-11.33,4.63-11.33,2.98,0,4.99.58,6.51,1.36l-.52,1.52c-.26.74-.94,1.33-1.94.97-.84-.29-2.1-.62-3.18-.62-1.84,0-3.94.68-3.94,3.01,0,2.49,3.2,3.1,5.86,4.3,3.18,1.46,4.7,3.01,4.7,6.02,0,4.66-4.73,6.54-8.9,6.54"/>
        </g>
        <g id="g394">
          <path id="path396" class="cls-1" d="m181.62,213.4c-.88,0-1.63-.75-1.63-1.62v-19.1c0-.88.75-1.62,1.63-1.62h13.04v1.62c0,.88-.74,1.62-1.62,1.62h-8.68v6.15h9.58v1.62c0,.88-.74,1.62-1.62,1.62h-7.97v6.47h8.74c.87,0,1.62.74,1.62,1.62v1.62h-13.11Z"/>
        </g>
        <g id="g398">
          <path id="path400" class="cls-1" d="m208.99,214.18c-6.7,0-11.84-4.31-11.84-11.56s5.15-11.56,11.84-11.56c2.46,0,4.93.68,6.61,1.81l-.65,1.46c-.35.78-1.06,1.2-2.11.78-1-.42-2.46-.81-3.85-.81-4.11,0-7.25,3.14-7.25,8.32s3.14,8.32,7.25,8.32c1.56,0,3.11-.49,3.92-.88,1.03-.49,1.84.03,2.19.78l.65,1.39c-1.46,1.07-4.08,1.94-6.77,1.94"/>
        </g>
        <g id="g402">
          <path id="path404" class="cls-1" d="m227.97,213.79c-5.96,0-9.45-2.78-9.45-8.64v-12.46c0-.88.74-1.62,1.62-1.62h2.75v13.7c0,3.72,1.49,5.79,5.09,5.79s5.08-2.07,5.08-5.79v-13.7h2.75c.87,0,1.62.75,1.62,1.62v12.46c0,5.86-3.46,8.64-9.45,8.64"/>
        </g>
        <g id="g406">
          <path id="path408" class="cls-1" d="m249.07,194.3h-2.92v7.31h2.92c2.65,0,4.85-.88,4.85-3.66s-2.2-3.66-4.85-3.66m7.32,19.1c-.94,0-1.88-.52-2.3-1.52l-3.01-7.12c-.64.07-1.33.1-2,.1h-2.92v8.55h-2.75c-.87,0-1.61-.74-1.61-1.62v-19.1c0-.88.74-1.62,1.61-1.62h5.67c4.98,0,9.39,1.56,9.39,6.9,0,2.97-1.4,4.79-3.47,5.79l4.43,9.65h-3.04Z"/>
        </g>
        <g id="g410">
          <path id="path412" class="cls-1" d="m263.95,213.4c-.87,0-1.62-.75-1.62-1.62v-19.1c0-.88.75-1.62,1.62-1.62h2.79v22.34h-2.79Z"/>
        </g>
        <g id="g414">
          <path id="path416" class="cls-1" d="m277.84,213.4c-.88,0-1.62-.75-1.62-1.62v-17.48h-4.95c-.88,0-1.62-.74-1.62-1.62v-1.62h17.52v1.62c0,.88-.75,1.62-1.63,1.62h-4.95v19.1h-2.75Z"/>
        </g>
        <g id="g418">
          <path id="path420" class="cls-1" d="m291.69,213.4c-.88,0-1.62-.75-1.62-1.62v-19.1c0-.88.74-1.62,1.62-1.62h2.78v22.34h-2.78Z"/>
        </g>
        <g id="g422">
          <path id="path424" class="cls-1" d="m300.62,213.4c-.88,0-1.62-.75-1.62-1.62v-19.1c0-.88.74-1.62,1.62-1.62h13.04v1.62c0,.88-.74,1.62-1.62,1.62h-8.67v6.15h9.58v1.62c0,.88-.74,1.62-1.62,1.62h-7.96v6.47h8.74c.88,0,1.62.74,1.62,1.62v1.62h-13.11Z"/>
        </g>
        <g id="g426">
          <path id="path428" class="cls-1" d="m322.47,214.18c-3.05,0-5.6-.68-7.12-1.52l.52-1.52c.26-.74,1.04-1.3,2.01-.91,1,.39,2.46.71,4.07.71,2.14,0,4.8-.65,4.8-3.14,0-3.21-3.59-3.27-7.48-5.41-5.15-2.81-3.43-11.33,4.63-11.33,2.98,0,4.99.58,6.51,1.36l-.52,1.52c-.26.74-.93,1.33-1.94.97-.85-.29-2.11-.62-3.18-.62-1.84,0-3.95.68-3.95,3.01,0,2.49,3.2,3.1,5.86,4.3,3.17,1.46,4.69,3.01,4.69,6.02,0,4.66-4.73,6.54-8.9,6.54"/>
        </g>
        <path class="cls-1" d="m290.06,227.61c-.51-1.15-1.64-1.89-2.9-1.89h-2.77l-9.27,23.11h2.69c1.3,0,2.46-.79,2.94-1.99l1.32-3.31h10.33l1.66,3.49c.52,1.1,1.64,1.81,2.86,1.81h2.5l-9.37-21.22Zm-6.99,13.34l3.91-11.59,4.64,11.59h-8.54Z"/>
      </g>
    </g>
  </g>
</svg>